<svg width="472" height="278" viewBox="0 0 472 278" fill="none" xmlns="http://www.w3.org/2000/svg">
  <g clip-path="url(#clip0_2301_33)">
  <path d="M357.252 203.56C343.213 203.56 331.792 214.981 331.792 229.02C331.792 243.058 343.213 254.479 357.252 254.479C371.29 254.479 382.711 243.058 382.711 229.02C382.711 214.98 371.29 203.56 357.252 203.56ZM357.252 242.479C349.83 242.479 343.792 236.441 343.792 229.02C343.792 221.598 349.83 215.56 357.252 215.56C364.673 215.56 370.711 221.598 370.711 229.02C370.711 236.44 364.673 242.479 357.252 242.479ZM210.583 203.56C196.545 203.56 185.124 214.981 185.124 229.02C185.124 243.058 196.545 254.479 210.583 254.479C224.622 254.479 236.043 243.058 236.043 229.02C236.043 214.98 224.622 203.56 210.583 203.56ZM210.583 242.479C203.162 242.479 197.124 236.441 197.124 229.02C197.124 221.598 203.162 215.56 210.583 215.56C218.005 215.56 224.043 221.598 224.043 229.02C224.043 236.44 218.005 242.479 210.583 242.479Z" fill="black"/>
  <path d="M454.277 97.891V73.9929H411.132L398.339 0.418945H210.583H205.56H184.17V12.419H203.416L184.508 118.289L124.521 163.654V188.261L112.964 195.185V164.905H87.2248L12.2598 212.963V197.618H0.259766V220.656V223.936V249.157H112.964V237.657L124.521 230.733V245.96H165.082C171.972 264.407 189.768 277.58 210.588 277.58C231.408 277.58 249.204 264.407 256.095 245.961H311.743C318.742 264.791 336.833 277.582 357.256 277.582C377.683 277.582 395.782 264.79 402.778 245.961H430.613L440.587 211.794L451.205 203.618H471.741V177.926V165.926V97.891H454.277ZM189.945 157.971L202.15 148.517L234.474 142.241L231.794 157.971H189.945ZM247.064 139.796L270.755 135.196L266.88 157.97H243.968L247.064 139.796ZM283.344 132.752L306.795 128.199L301.721 157.97H279.053L283.344 132.752ZM319.385 125.755L341.521 121.456C341.706 122.388 341.922 123.398 342.177 124.473L336.477 157.971H313.895L319.385 125.755ZM350.691 145.969C353.168 150.141 356.238 154.255 360.042 157.971H348.649L350.691 145.969ZM376.145 155.217C360.645 146.095 355.156 128.088 353.337 119.162L392.492 111.559L376.145 155.217ZM215.606 12.4179H388.246L399.309 76.0409L350.949 85.169C353.783 61.211 369.377 42.414 369.545 42.214L370.966 40.5359V17.3399H221.597L205.368 112.648L197.437 114.145L215.606 12.4179ZM217.945 110.273L231.725 29.339H253.691L240.643 105.988L217.945 110.273ZM265.864 29.3399H288.788L276.902 99.1459L253.219 103.616L265.864 29.3399ZM300.961 29.3399H323.627L312.893 92.3529L289.479 96.7719L300.961 29.3399ZM335.801 29.3399H358.966V36.242C354.379 42.225 340.386 62.3719 338.68 87.4849L325.471 89.9779L335.801 29.3399ZM100.964 237.157H12.2598V227.217L90.7398 176.904H100.964V237.157ZM112.964 223.667V209.175L124.521 202.251V216.743L112.964 223.667ZM136.521 169.624L192.501 127.288L401.365 87.865L397.428 98.378L198.461 137.009L197.06 137.28L147.342 175.792V233.96H136.52L136.521 169.624ZM159.343 233.96V181.676L174.453 169.971H375.796C377.44 175.098 380.984 179.502 385.85 182.167C399.996 189.915 408.95 204.5 409.571 220.529L405.514 223.654C402.832 199.394 382.218 180.46 357.255 180.46C334.877 180.46 315.997 195.679 310.395 216.308H257.45C251.847 195.678 232.967 180.458 210.588 180.458C183.812 180.458 162.027 202.242 162.027 229.02C162.027 230.688 162.112 232.335 162.277 233.96H159.343ZM210.587 265.58C190.428 265.58 174.026 249.179 174.026 229.019C174.026 208.859 190.427 192.457 210.587 192.457C230.747 192.457 247.149 208.858 247.149 229.019C247.148 249.179 230.747 265.58 210.587 265.58ZM259.131 228.308H308.713C308.709 228.546 308.694 228.783 308.694 229.022C308.694 230.678 308.802 232.325 308.968 233.961H258.898C259.063 232.336 259.148 230.688 259.148 229.02C259.148 228.781 259.134 228.546 259.131 228.308ZM393.496 233.881L393.301 235.128C393.135 236.19 392.905 237.265 392.597 238.421C388.353 254.413 373.82 265.582 357.255 265.582C340.69 265.582 326.158 254.413 321.913 238.415C321.104 235.381 320.694 232.22 320.694 229.021C320.694 208.861 337.095 192.459 357.255 192.459C377.415 192.459 393.817 208.86 393.817 229.021C393.816 230.641 393.709 232.27 393.496 233.881ZM421.614 233.961H411.797L424.461 224.21L421.614 233.961ZM442.277 195.346L420.692 211.966C417.609 195.006 407.053 180.099 391.614 171.642C388.625 170.005 386.767 166.871 386.767 163.461V162.754C386.767 161.634 386.966 160.532 387.36 159.483L414.881 85.9929H442.277V195.346ZM459.74 191.618H454.281V177.926H459.74V191.618ZM454.281 165.926V109.891H459.74V165.926H454.281Z" fill="black"/>
  <path d="M412.101 157.082H400.741V168.442H412.101V157.082Z" fill="black"/>
  <path d="M433.031 93.1562H421.672V104.515H433.031V93.1562Z" fill="black"/>
  </g>
  <defs>
  <clipPath id="clip0_2301_33">
  <rect width="472" height="278" fill="white"/>
  </clipPath>
  </defs>
</svg>
