<svg xmlns="http://www.w3.org/2000/svg" xmlns:xlink="http://www.w3.org/1999/xlink" version="1.1" id="Layer_1" x="0px" y="0px" viewBox="0 0 53.6 31.8" style="enable-background:new 0 0 53.6 31.8;" xml:space="preserve">
<style type="text/css">
	.st0{fill:#171718;}
</style>
<path class="st0" d="M42.7,0.6l-3.1,5.7c-0.1,0.1-0.1,0.2-0.1,0.4c0,0.1,0,0.2,0.1,0.4c0.1,0.1,0.2,0.2,0.3,0.3  c0.1,0.1,0.2,0.1,0.4,0.1h0.4c3,0,4,2.2,4,4.4c0,2.2-1.4,4.4-4.3,4.4h-5.1c-0.2,0-0.4,0.1-0.6,0.2c-0.2,0.1-0.3,0.3-0.4,0.5  l-7.6,14.1c0,0.1-0.1,0.2-0.1,0.3c0,0.1,0,0.2,0.1,0.3c0.1,0.1,0.1,0.2,0.2,0.2c0.1,0,0.2,0.1,0.3,0.1H35c0.2,0,0.3-0.1,0.4-0.2  c0.1-0.1,0.2-0.2,0.2-0.4l0.1-7.5c0-0.1,0-0.2,0.1-0.3c0.1-0.1,0.2-0.1,0.3-0.1l5.2,0c7.3,0,12.2-4.6,12.2-11.4  c0-6.4-3.5-10.9-9.9-11.7c-0.2,0-0.4,0-0.6,0.1C43,0.3,42.8,0.4,42.7,0.6z"/>
<path class="st0" d="M37.1,0.8L20.9,31.3c-0.1,0.2-0.2,0.3-0.4,0.4c-0.2,0.1-0.3,0.1-0.5,0.1h-4.6c-0.2,0-0.4-0.1-0.5-0.2  c-0.2-0.1-0.3-0.3-0.4-0.5L9.1,16.9c0-0.1-0.1-0.2-0.2-0.2c-0.1-0.1-0.2-0.1-0.3,0c-0.1,0-0.2,0.1-0.3,0.2c-0.1,0.1-0.1,0.2-0.1,0.3  v14c0,0.1,0,0.2-0.1,0.3S8.1,31.5,8,31.6c-0.1,0.1-0.2,0.1-0.2,0.2c-0.1,0-0.2,0.1-0.3,0.1H0.7c-0.1,0-0.2,0-0.3-0.1  c-0.1,0-0.2-0.1-0.2-0.2c-0.1-0.1-0.1-0.2-0.2-0.2S0,31.1,0,31V0.6c0-0.1,0-0.1,0-0.2s0.1-0.1,0.1-0.2S0.3,0.1,0.4,0s0.1,0,0.2,0  h8.7c0.2,0,0.4,0.1,0.6,0.2c0.2,0.1,0.3,0.3,0.4,0.5l7.2,17.8c0,0.1,0.1,0.1,0.2,0.2c0.1,0,0.1,0.1,0.2,0.1c0.1,0,0.2,0,0.2-0.1  c0.1,0,0.1-0.1,0.2-0.2l9.6-18c0.1-0.2,0.2-0.3,0.4-0.4C28.3,0,28.5,0,28.7,0h7.9c0.1,0,0.2,0,0.3,0.1c0.1,0,0.2,0.1,0.2,0.2  c0.1,0.1,0.1,0.2,0.1,0.3S37.1,0.8,37.1,0.8z"/>
</svg>